<mxfile host="app.diagrams.net" modified="2022-04-27T10:08:17.960Z" agent="5.0 (Macintosh; Intel Mac OS X 10_15_7) AppleWebKit/605.1.15 (KHTML, like Gecko) Version/15.4 Safari/605.1.15" etag="DeajGoPHu-9R5oL3z_7_" version="17.4.6" type="github">
  <diagram name="Page-1" id="e7e014a7-5840-1c2e-5031-d8a46d1fe8dd">
    <mxGraphModel dx="921" dy="795" grid="1" gridSize="10" guides="1" tooltips="1" connect="1" arrows="1" fold="1" page="1" pageScale="1" pageWidth="1169" pageHeight="826" background="none" math="0" shadow="0">
      <root>
        <mxCell id="0" />
        <mxCell id="1" parent="0" />
        <mxCell id="aP4F___4Ps4LZ2i5mP5k-42" value="Position" style="swimlane;fontStyle=1;align=center;verticalAlign=top;childLayout=stackLayout;horizontal=1;startSize=26;horizontalStack=0;resizeParent=1;resizeParentMax=0;resizeLast=0;collapsible=1;marginBottom=0;" vertex="1" parent="1">
          <mxGeometry x="260" y="480" width="160" height="200" as="geometry" />
        </mxCell>
        <mxCell id="aP4F___4Ps4LZ2i5mP5k-43" value="- x: int&#xa;- y: int" style="text;strokeColor=none;fillColor=none;align=left;verticalAlign=top;spacingLeft=4;spacingRight=4;overflow=hidden;rotatable=0;points=[[0,0.5],[1,0.5]];portConstraint=eastwest;" vertex="1" parent="aP4F___4Ps4LZ2i5mP5k-42">
          <mxGeometry y="26" width="160" height="34" as="geometry" />
        </mxCell>
        <mxCell id="aP4F___4Ps4LZ2i5mP5k-44" value="" style="line;strokeWidth=1;fillColor=none;align=left;verticalAlign=middle;spacingTop=-1;spacingLeft=3;spacingRight=3;rotatable=0;labelPosition=right;points=[];portConstraint=eastwest;" vertex="1" parent="aP4F___4Ps4LZ2i5mP5k-42">
          <mxGeometry y="60" width="160" height="8" as="geometry" />
        </mxCell>
        <mxCell id="aP4F___4Ps4LZ2i5mP5k-45" value="+ Position(x:int, y:int)&#xa;+ getX():int&#xa;+ getY():int&#xa;+ getPosToSouth(): Position&#xa;+ getPosToNorth(): Position&#xa;+ getPosToWest(): Position&#xa;+ getPosToEast(): Position&#xa;+ equals(Object o): boolean&#xa;+ hashCode(): int" style="text;strokeColor=none;fillColor=none;align=left;verticalAlign=top;spacingLeft=4;spacingRight=4;overflow=hidden;rotatable=0;points=[[0,0.5],[1,0.5]];portConstraint=eastwest;" vertex="1" parent="aP4F___4Ps4LZ2i5mP5k-42">
          <mxGeometry y="68" width="160" height="132" as="geometry" />
        </mxCell>
        <mxCell id="aP4F___4Ps4LZ2i5mP5k-46" value="MemoryRobot" style="swimlane;fontStyle=1;align=center;verticalAlign=top;childLayout=stackLayout;horizontal=1;startSize=26;horizontalStack=0;resizeParent=1;resizeParentMax=0;resizeLast=0;collapsible=1;marginBottom=0;" vertex="1" parent="1">
          <mxGeometry x="760" y="198" width="180" height="190" as="geometry" />
        </mxCell>
        <mxCell id="aP4F___4Ps4LZ2i5mP5k-47" value="- position: Position&#xa;- previousPostion : Position&#xa;- maze : Maze" style="text;strokeColor=none;fillColor=none;align=left;verticalAlign=top;spacingLeft=4;spacingRight=4;overflow=hidden;rotatable=0;points=[[0,0.5],[1,0.5]];portConstraint=eastwest;" vertex="1" parent="aP4F___4Ps4LZ2i5mP5k-46">
          <mxGeometry y="26" width="180" height="54" as="geometry" />
        </mxCell>
        <mxCell id="aP4F___4Ps4LZ2i5mP5k-48" value="" style="line;strokeWidth=1;fillColor=none;align=left;verticalAlign=middle;spacingTop=-1;spacingLeft=3;spacingRight=3;rotatable=0;labelPosition=right;points=[];portConstraint=eastwest;" vertex="1" parent="aP4F___4Ps4LZ2i5mP5k-46">
          <mxGeometry y="80" width="180" height="8" as="geometry" />
        </mxCell>
        <mxCell id="aP4F___4Ps4LZ2i5mP5k-49" value="+ MemoryRobot(Maze)&#xa;+ move(): void&#xa;-  hasVisited(Position): boolean&#xa;-  setPosition(Position): void&#xa;+ getPosition(): Position&#xa;+ hasReachedGoal: Position" style="text;strokeColor=none;fillColor=none;align=left;verticalAlign=top;spacingLeft=4;spacingRight=4;overflow=hidden;rotatable=0;points=[[0,0.5],[1,0.5]];portConstraint=eastwest;" vertex="1" parent="aP4F___4Ps4LZ2i5mP5k-46">
          <mxGeometry y="88" width="180" height="102" as="geometry" />
        </mxCell>
        <mxCell id="aP4F___4Ps4LZ2i5mP5k-50" value="RandomRobot" style="swimlane;fontStyle=1;align=center;verticalAlign=top;childLayout=stackLayout;horizontal=1;startSize=26;horizontalStack=0;resizeParent=1;resizeParentMax=0;resizeLast=0;collapsible=1;marginBottom=0;" vertex="1" parent="1">
          <mxGeometry x="455" y="198" width="180" height="180" as="geometry" />
        </mxCell>
        <mxCell id="aP4F___4Ps4LZ2i5mP5k-51" value="- position : Position&#xa;- previousPosition: Position&#xa;- maze: Maze&#xa;- move: Random" style="text;strokeColor=none;fillColor=none;align=left;verticalAlign=top;spacingLeft=4;spacingRight=4;overflow=hidden;rotatable=0;points=[[0,0.5],[1,0.5]];portConstraint=eastwest;" vertex="1" parent="aP4F___4Ps4LZ2i5mP5k-50">
          <mxGeometry y="26" width="180" height="64" as="geometry" />
        </mxCell>
        <mxCell id="aP4F___4Ps4LZ2i5mP5k-52" value="" style="line;strokeWidth=1;fillColor=none;align=left;verticalAlign=middle;spacingTop=-1;spacingLeft=3;spacingRight=3;rotatable=0;labelPosition=right;points=[];portConstraint=eastwest;" vertex="1" parent="aP4F___4Ps4LZ2i5mP5k-50">
          <mxGeometry y="90" width="180" height="8" as="geometry" />
        </mxCell>
        <mxCell id="aP4F___4Ps4LZ2i5mP5k-53" value="+ RandomRobot(maze)&#xa;+ move(): void&#xa;+ getPosition(): Position&#xa;-  setPosition(Position): void&#xa;+ hasReachedGoal(): boolean" style="text;strokeColor=none;fillColor=none;align=left;verticalAlign=top;spacingLeft=4;spacingRight=4;overflow=hidden;rotatable=0;points=[[0,0.5],[1,0.5]];portConstraint=eastwest;" vertex="1" parent="aP4F___4Ps4LZ2i5mP5k-50">
          <mxGeometry y="98" width="180" height="82" as="geometry" />
        </mxCell>
        <mxCell id="aP4F___4Ps4LZ2i5mP5k-54" value="Maze" style="swimlane;fontStyle=1;align=center;verticalAlign=top;childLayout=stackLayout;horizontal=1;startSize=26;horizontalStack=0;resizeParent=1;resizeParentMax=0;resizeLast=0;collapsible=1;marginBottom=0;" vertex="1" parent="1">
          <mxGeometry x="710" y="490" width="230" height="150" as="geometry" />
        </mxCell>
        <mxCell id="aP4F___4Ps4LZ2i5mP5k-56" value="" style="line;strokeWidth=1;fillColor=none;align=left;verticalAlign=middle;spacingTop=-1;spacingLeft=3;spacingRight=3;rotatable=0;labelPosition=right;points=[];portConstraint=eastwest;" vertex="1" parent="aP4F___4Ps4LZ2i5mP5k-54">
          <mxGeometry y="26" width="230" height="14" as="geometry" />
        </mxCell>
        <mxCell id="aP4F___4Ps4LZ2i5mP5k-57" value="+ Maze(java.util.scanner)&#xa;+ isMovable(Position): boolean&#xa;+ findFreePosition(Position): int&#xa;+ isGoal(Position): boolean&#xa;+ getStart(): Postion&#xa;+ getNumsColumns(): int&#xa;+ getNumRows(): int" style="text;strokeColor=none;fillColor=none;align=left;verticalAlign=top;spacingLeft=4;spacingRight=4;overflow=hidden;rotatable=0;points=[[0,0.5],[1,0.5]];portConstraint=eastwest;" vertex="1" parent="aP4F___4Ps4LZ2i5mP5k-54">
          <mxGeometry y="40" width="230" height="110" as="geometry" />
        </mxCell>
        <mxCell id="aP4F___4Ps4LZ2i5mP5k-58" value="RightHandRuleRobot" style="swimlane;fontStyle=1;align=center;verticalAlign=top;childLayout=stackLayout;horizontal=1;startSize=26;horizontalStack=0;resizeParent=1;resizeParentMax=0;resizeLast=0;collapsible=1;marginBottom=0;" vertex="1" parent="1">
          <mxGeometry x="160" y="163" width="220" height="250" as="geometry" />
        </mxCell>
        <mxCell id="aP4F___4Ps4LZ2i5mP5k-59" value="- position: Position&#xa;- previousPostion: Position&#xa;- startPosition: Position&#xa;- maze: Maze" style="text;strokeColor=none;fillColor=none;align=left;verticalAlign=top;spacingLeft=4;spacingRight=4;overflow=hidden;rotatable=0;points=[[0,0.5],[1,0.5]];portConstraint=eastwest;" vertex="1" parent="aP4F___4Ps4LZ2i5mP5k-58">
          <mxGeometry y="26" width="220" height="64" as="geometry" />
        </mxCell>
        <mxCell id="aP4F___4Ps4LZ2i5mP5k-60" value="" style="line;strokeWidth=1;fillColor=none;align=left;verticalAlign=middle;spacingTop=-1;spacingLeft=3;spacingRight=3;rotatable=0;labelPosition=right;points=[];portConstraint=eastwest;" vertex="1" parent="aP4F___4Ps4LZ2i5mP5k-58">
          <mxGeometry y="90" width="220" height="8" as="geometry" />
        </mxCell>
        <mxCell id="aP4F___4Ps4LZ2i5mP5k-61" value="+ RightHandRuleRobot(maze)&#xa;+ move(): void&#xa;-  moveFromStart(Position): boolean&#xa;-  faceSouth(Position): void&#xa;-  faceNorth(Position): void&#xa;-  faceWest(Position): void&#xa;-  faceEast(Position): void&#xa;-  setPosition(Position): void&#xa;+ getPosition(): Position&#xa;+ hasReachedGoal(): boolean" style="text;strokeColor=none;fillColor=none;align=left;verticalAlign=top;spacingLeft=4;spacingRight=4;overflow=hidden;rotatable=0;points=[[0,0.5],[1,0.5]];portConstraint=eastwest;" vertex="1" parent="aP4F___4Ps4LZ2i5mP5k-58">
          <mxGeometry y="98" width="220" height="152" as="geometry" />
        </mxCell>
        <mxCell id="aP4F___4Ps4LZ2i5mP5k-71" value="&lt;p style=&quot;margin: 0px ; margin-top: 4px ; text-align: center&quot;&gt;&lt;i&gt;&amp;lt;&amp;lt;Interface&amp;gt;&amp;gt;&lt;/i&gt;&lt;br&gt;&lt;b&gt;Robot&lt;/b&gt;&lt;/p&gt;&lt;hr size=&quot;1&quot;&gt;&lt;p style=&quot;margin: 0px ; margin-left: 4px&quot;&gt;move(): void&lt;br&gt;&lt;/p&gt;&lt;p style=&quot;margin: 0px ; margin-left: 4px&quot;&gt;getPosition: Position&lt;/p&gt;&lt;p style=&quot;margin: 0px ; margin-left: 4px&quot;&gt;hasReachedGoal: boolean&lt;/p&gt;" style="verticalAlign=top;align=left;overflow=fill;fontSize=12;fontFamily=Helvetica;html=1;" vertex="1" parent="1">
          <mxGeometry x="450" width="190" height="90" as="geometry" />
        </mxCell>
        <mxCell id="aP4F___4Ps4LZ2i5mP5k-84" value="" style="endArrow=block;dashed=1;endFill=0;endSize=12;html=1;rounded=0;entryX=0;entryY=0.5;entryDx=0;entryDy=0;" edge="1" parent="1" target="aP4F___4Ps4LZ2i5mP5k-71">
          <mxGeometry width="160" relative="1" as="geometry">
            <mxPoint x="260" y="163" as="sourcePoint" />
            <mxPoint x="410" y="123" as="targetPoint" />
            <Array as="points" />
          </mxGeometry>
        </mxCell>
        <mxCell id="aP4F___4Ps4LZ2i5mP5k-85" value="" style="endArrow=block;dashed=1;endFill=0;endSize=12;html=1;rounded=0;entryX=0.5;entryY=1;entryDx=0;entryDy=0;exitX=0.5;exitY=0;exitDx=0;exitDy=0;" edge="1" parent="1" source="aP4F___4Ps4LZ2i5mP5k-50" target="aP4F___4Ps4LZ2i5mP5k-71">
          <mxGeometry width="160" relative="1" as="geometry">
            <mxPoint x="680" y="460" as="sourcePoint" />
            <mxPoint x="840" y="460" as="targetPoint" />
            <Array as="points" />
          </mxGeometry>
        </mxCell>
        <mxCell id="aP4F___4Ps4LZ2i5mP5k-86" value="" style="endArrow=block;dashed=1;endFill=0;endSize=12;html=1;rounded=0;entryX=1;entryY=0.5;entryDx=0;entryDy=0;exitX=0.5;exitY=0;exitDx=0;exitDy=0;" edge="1" parent="1" source="aP4F___4Ps4LZ2i5mP5k-46" target="aP4F___4Ps4LZ2i5mP5k-71">
          <mxGeometry width="160" relative="1" as="geometry">
            <mxPoint x="680" y="460" as="sourcePoint" />
            <mxPoint x="840" y="460" as="targetPoint" />
            <Array as="points" />
          </mxGeometry>
        </mxCell>
        <mxCell id="aP4F___4Ps4LZ2i5mP5k-87" value="" style="html=1;verticalAlign=bottom;endArrow=block;rounded=0;exitX=-0.004;exitY=0.345;exitDx=0;exitDy=0;exitPerimeter=0;entryX=1;entryY=0.159;entryDx=0;entryDy=0;entryPerimeter=0;" edge="1" parent="1" source="aP4F___4Ps4LZ2i5mP5k-57" target="aP4F___4Ps4LZ2i5mP5k-45">
          <mxGeometry width="80" relative="1" as="geometry">
            <mxPoint x="530" y="579.5" as="sourcePoint" />
            <mxPoint x="430" y="568" as="targetPoint" />
          </mxGeometry>
        </mxCell>
        <mxCell id="aP4F___4Ps4LZ2i5mP5k-93" value="" style="endArrow=diamondThin;endFill=0;endSize=24;html=1;rounded=0;exitX=1;exitY=0.5;exitDx=0;exitDy=0;exitPerimeter=0;" edge="1" parent="1" source="aP4F___4Ps4LZ2i5mP5k-94">
          <mxGeometry width="160" relative="1" as="geometry">
            <mxPoint x="849" y="440" as="sourcePoint" />
            <mxPoint x="850" y="390" as="targetPoint" />
          </mxGeometry>
        </mxCell>
        <mxCell id="aP4F___4Ps4LZ2i5mP5k-94" value="" style="line;strokeWidth=1;fillColor=none;align=left;verticalAlign=middle;spacingTop=-1;spacingLeft=3;spacingRight=3;rotatable=0;labelPosition=right;points=[];portConstraint=eastwest;" vertex="1" parent="1">
          <mxGeometry x="550" y="440" width="300" height="8" as="geometry" />
        </mxCell>
        <mxCell id="aP4F___4Ps4LZ2i5mP5k-95" value="" style="endArrow=diamondThin;endFill=0;endSize=24;html=1;rounded=0;entryX=0.522;entryY=1.049;entryDx=0;entryDy=0;entryPerimeter=0;exitX=-0.001;exitY=0.628;exitDx=0;exitDy=0;exitPerimeter=0;" edge="1" parent="1" source="aP4F___4Ps4LZ2i5mP5k-94" target="aP4F___4Ps4LZ2i5mP5k-53">
          <mxGeometry width="160" relative="1" as="geometry">
            <mxPoint x="550" y="440" as="sourcePoint" />
            <mxPoint x="560" y="410" as="targetPoint" />
          </mxGeometry>
        </mxCell>
        <mxCell id="aP4F___4Ps4LZ2i5mP5k-96" value="" style="endArrow=diamondThin;endFill=0;endSize=24;html=1;rounded=0;entryX=1;entryY=0.921;entryDx=0;entryDy=0;entryPerimeter=0;exitX=-0.001;exitY=0.57;exitDx=0;exitDy=0;exitPerimeter=0;" edge="1" parent="1" source="aP4F___4Ps4LZ2i5mP5k-94" target="aP4F___4Ps4LZ2i5mP5k-61">
          <mxGeometry width="160" relative="1" as="geometry">
            <mxPoint x="550" y="443.5" as="sourcePoint" />
            <mxPoint x="420" y="443.5" as="targetPoint" />
            <Array as="points">
              <mxPoint x="510" y="443.5" />
            </Array>
          </mxGeometry>
        </mxCell>
        <mxCell id="aP4F___4Ps4LZ2i5mP5k-97" value="" style="html=1;verticalAlign=bottom;endArrow=block;rounded=0;entryX=0;entryY=0.182;entryDx=0;entryDy=0;entryPerimeter=0;" edge="1" parent="1" target="aP4F___4Ps4LZ2i5mP5k-57">
          <mxGeometry x="-1" width="80" relative="1" as="geometry">
            <mxPoint x="550" y="440" as="sourcePoint" />
            <mxPoint x="550" y="640" as="targetPoint" />
            <Array as="points">
              <mxPoint x="550" y="550" />
            </Array>
            <mxPoint as="offset" />
          </mxGeometry>
        </mxCell>
      </root>
    </mxGraphModel>
  </diagram>
</mxfile>
